<?xml version="1.0" standalone="no"?>
<!DOCTYPE svg PUBLIC "-//W3C//DTD SVG 1.0//EN" "http://www.w3.org/TR/2001/REC-SVG-20010904/DTD/svg10.dtd">
<svg xmlns="http://www.w3.org/2000/svg" xmlns:xlink="http://www.w3.org/1999/xlink" id="body_1" width="117" height="104">

<defs>
            <clipPath  id="1">

                <path clip-rule="evenodd" d="" />            </clipPath>
</defs>

<g transform="matrix(1.5 0 0 1.5072464 0 0)">
	<g transform="matrix(0.2641972 0 0 0.2641972 0.7925916 28.791225)">
		<g clip-path="url(#1)" >
            <path d="M44 22C 44 34.1503 34.1503 44 22 44C 9.84974 44 0 34.1503 0 22C 0 9.84974 9.84974 0 22 0C 34.1503 0 44 9.84974 44 22zM16 18C 16 20.7614 13.7614 23 11 23C 8.23858 23 6 20.7614 6 18C 6 15.2386 8.23858 13 11 13C 13.7614 13 16 15.2386 16 18zM15 36C 17.7614 36 20 33.7614 20 31C 20 28.2386 17.7614 26 15 26C 12.2386 26 10 28.2386 10 31C 10 33.7614 12.2386 36 15 36zM34 31C 34 33.7614 31.7614 36 29 36C 26.2386 36 24 33.7614 24 31C 24 28.2386 26.2386 26 29 26C 31.7614 26 34 28.2386 34 31zM33 23C 35.7614 23 38 20.7614 38 18C 38 15.2386 35.7614 13 33 13C 30.2386 13 28 15.2386 28 18C 28 20.7614 30.2386 23 33 23zM27 10C 27 12.7614 24.7614 15 22 15C 19.2386 15 17 12.7614 17 10C 17 7.23858 19.2386 5 22 5C 24.7614 5 27 7.23858 27 10zM22 24C 23.1046 24 24 23.1046 24 22C 24 20.8954 23.1046 20 22 20C 20.8954 20 20 20.8954 20 22C 20 23.1046 20.8954 24 22 24z" stroke="none" fill="#E2D703" fill-rule="nonzero" />
            <path d="M33.5 38.5C 35.5 37.1667 43 35 49.5 40" stroke="#E2D703" stroke-width="3" stroke-linecap="round" fill="none" />
		</g>
		<text transform="matrix(1 0 0 1 0 0)" x="64.41" y="18.118" style="fill:#333333;font-family:ABeeZee;" font-size="2">

		</text>
		<text transform="matrix(1 0 0 1 0 0)" x="82.168" y="17.542" style="fill:#333333;font-family:ABeeZee;" font-size="2">

		</text>
		<text transform="matrix(1 0 0 1 0 0)" x="64.554" y="18.693" style="fill:#333333;font-family:ABeeZee;" font-size="2">

		</text>
		<text transform="matrix(1 0 0 1 0 0)" x="64.171" y="18.046" style="fill:#333333;font-family:ABeeZee;" font-size="2">

		</text>
		<text transform="matrix(1 0 0 1 0 0)" x="54.249" y="26.66" style="fill:#333333;font-family:ABeeZee;" font-size="2">

		</text>
		<text transform="matrix(1 0 0 1 0 0)" x="54.249" y="26.66" style="fill:#333333;font-family:ABeeZee;" font-size="2">
​
		</text>
		<text transform="matrix(1 0 0 1 0 0)" x="165.879" y="23.654" style="fill:#333333;font-family:ABeeZee;" font-size="2">

		</text>
		<text transform="matrix(1 0 0 1 0 0)" x="41.875" y="23.158" style="fill:#333333;font-family:ABeeZee;" font-size="2">

		</text>
		<g>
			<text transform="matrix(1 0 0 1 0 0)" x="50.79" y="20.426" style="fill:#333333;font-family:ABeeZee;" font-size="36">

			</text>
		</g>
		<text transform="matrix(1 0 0 1 0 0)" x="36.986" y="15.769" style="fill:#333333;font-family:ABeeZee;" font-size="2">

		</text>
		<text transform="matrix(1 0 0 1 0 0)" x="47.267" y="19.436" style="fill:#333333;font-family:ABeeZee;" font-size="2">

		</text>
		<text transform="matrix(1 0 0 1 0 0)" x="90.9" y="18.142" style="fill:#333333;font-family:ABeeZee;" font-size="2">

		</text>
		<text transform="matrix(1 0 0 1 0 0)" x="51.357" y="41.556" style="fill:#333333;font-family:ABeeZee;" font-size="2">

		</text>
		<text transform="matrix(1 0 0 1 0 0)" x="51.501" y="43.137" style="fill:#FFFFFF;font-family:ABeeZee;" font-size="60">
Amirlane
		</text>
		<text transform="matrix(1 0 0 1 0 0)" x="43.305" y="3.962" style="fill:#333333;font-family:ABeeZee;" font-size="2">

		</text>
	</g>
</g>
</svg>